{
    "asset" : {
        "generator" : "Khronos glTF Blender I/O v1.7.33",
        "version" : "2.0"
    },
    "scene" : 0,
    "scenes" : [
        {
            "name" : "Scene",
            "nodes" : [
                0
            ]
        }
    ],
    "nodes" : [
        {
            "mesh" : 0,
            "name" : "rock"
        }
    ],
    "materials" : [
        {
            "doubleSided" : true,
            "name" : "Material",
            "pbrMetallicRoughness" : {
                "baseColorFactor" : [
                    0.04967200383543968,
                    0.04967200383543968,
                    0.04967200383543968,
                    1
                ],
                "metallicFactor" : 0,
                "roughnessFactor" : 0.5
            }
        }
    ],
    "meshes" : [
        {
            "name" : "rock",
            "primitives" : [
                {
                    "attributes" : {
                        "POSITION" : 0,
                        "NORMAL" : 1
                    },
                    "indices" : 2,
                    "material" : 0
                }
            ]
        }
    ],
    "accessors" : [
        {
            "bufferView" : 0,
            "componentType" : 5126,
            "count" : 32272,
            "max" : [
                1.6576091051101685,
                1.6102163791656494,
                1.7315587997436523
            ],
            "min" : [
                -1.317029356956482,
                -1.3239257335662842,
                -1.9451379776000977
            ],
            "type" : "VEC3"
        },
        {
            "bufferView" : 1,
            "componentType" : 5126,
            "count" : 32272,
            "type" : "VEC3"
        },
        {
            "bufferView" : 2,
            "componentType" : 5123,
            "count" : 184320,
            "type" : "SCALAR"
        }
    ],
    "bufferViews" : [
        {
            "buffer" : 0,
            "byteLength" : 387264,
            "byteOffset" : 0
        },
        {
            "buffer" : 0,
            "byteLength" : 387264,
            "byteOffset" : 387264
        },
        {
            "buffer" : 0,
            "byteLength" : 368640,
            "byteOffset" : 774528
        }
    ],
    "buffers" : [
        {
            "byteLength" : 1143168,
            "uri" : "asteroid.bin"
        }
    ]
}
